<svg width="757" height="91" viewBox="0 0 757 91" fill="none" xmlns="http://www.w3.org/2000/svg">
<path d="M85.6425 2.18519H60.1125L43.6845 34.3752H43.0185L26.9235 2.18519H0.283516L31.5855 57.9072V88.7652H54.8955V57.9072L85.6425 2.18519ZM130.123 19.7232C149.326 19.7232 152.878 23.7192 152.878 45.4752C152.878 67.2312 149.326 71.2272 130.123 71.2272C110.92 71.2272 107.368 67.2312 107.368 45.4752C107.368 23.7192 110.92 19.7232 130.123 19.7232ZM82.9482 45.4752C82.9482 83.1042 90.3852 90.0972 130.123 90.0972C169.861 90.0972 177.298 83.1042 177.298 45.4752C177.298 7.84619 169.861 0.853192 130.123 0.853192C90.3852 0.853192 82.9482 7.84619 82.9482 45.4752ZM261.898 53.2452V2.18519H238.588V53.2452C238.588 68.4522 236.257 71.2272 223.492 71.2272C210.727 71.2272 208.396 68.4522 208.396 53.2452V2.18519H185.086V53.2452C185.086 84.3252 191.08 90.0972 223.492 90.0972C255.904 90.0972 261.898 84.3252 261.898 53.2452ZM322.555 2.18519H270.829V88.7652H294.139V60.4602H317.005C324.442 60.4602 326.773 62.9022 326.773 72.6702C326.773 80.4402 327.217 85.1022 329.104 88.7652H354.634V87.7662C351.082 83.7702 350.194 76.2222 350.194 67.4532C350.194 56.9082 345.199 53.4672 335.431 51.2472C347.197 48.5832 351.415 43.6992 351.415 33.3762V30.0462C351.415 6.51419 347.086 2.18519 322.555 2.18519ZM294.139 42.7002V21.0552H316.561C326.329 21.0552 328.105 22.9422 328.105 31.7112C328.105 40.8132 326.329 42.7002 316.561 42.7002H294.139Z" fill="white"/>
<path d="M85.6425 2.18519L86.9558 2.90988L88.1834 0.685194H85.6425V2.18519ZM60.1125 2.18519V0.685194H59.194L58.7765 1.50334L60.1125 2.18519ZM43.6845 34.3752V35.8752H44.6031L45.0206 35.0571L43.6845 34.3752ZM43.0185 34.3752L41.6769 35.046L42.0915 35.8752H43.0185V34.3752ZM26.9235 2.18519L28.2652 1.51437L27.8506 0.685194H26.9235V2.18519ZM0.283516 2.18519V0.685194H-2.27959L-1.02426 2.91984L0.283516 2.18519ZM31.5855 57.9072H33.0855V57.5147L32.8933 57.1725L31.5855 57.9072ZM31.5855 88.7652H30.0855V90.2652H31.5855V88.7652ZM54.8955 88.7652V90.2652H56.3955V88.7652H54.8955ZM54.8955 57.9072L53.5822 57.1825L53.3955 57.5208V57.9072H54.8955ZM85.6425 0.685194H60.1125V3.68519H85.6425V0.685194ZM58.7765 1.50334L42.3485 33.6933L45.0206 35.0571L61.4486 2.86705L58.7765 1.50334ZM43.6845 32.8752H43.0185V35.8752H43.6845V32.8752ZM44.3602 33.7044L28.2652 1.51437L25.5819 2.85601L41.6769 35.046L44.3602 33.7044ZM26.9235 0.685194H0.283516V3.68519H26.9235V0.685194ZM-1.02426 2.91984L30.2777 58.6418L32.8933 57.1725L1.5913 1.45054L-1.02426 2.91984ZM30.0855 57.9072V88.7652H33.0855V57.9072H30.0855ZM31.5855 90.2652H54.8955V87.2652H31.5855V90.2652ZM56.3955 88.7652V57.9072H53.3955V88.7652H56.3955ZM56.2088 58.6319L86.9558 2.90988L84.3292 1.46051L53.5822 57.1825L56.2088 58.6319ZM130.123 21.2232C134.896 21.2232 138.577 21.474 141.436 22.1475C144.267 22.8144 146.198 23.8736 147.578 25.4344C148.974 27.0127 149.942 29.2562 150.548 32.5451C151.155 35.8402 151.378 40.0578 151.378 45.4752H154.378C154.378 40.0145 154.157 35.5742 153.498 32.0012C152.838 28.4219 151.718 25.5872 149.825 23.447C147.917 21.2893 145.36 19.9898 142.124 19.2275C138.916 18.4719 134.952 18.2232 130.123 18.2232V21.2232ZM151.378 45.4752C151.378 50.8926 151.155 55.1102 150.548 58.4053C149.942 61.6942 148.974 63.9377 147.578 65.516C146.198 67.0768 144.267 68.136 141.436 68.8028C138.577 69.4764 134.896 69.7272 130.123 69.7272V72.7272C134.952 72.7272 138.916 72.4785 142.124 71.7229C145.36 70.9606 147.917 69.6611 149.825 67.5034C151.718 65.3632 152.838 62.5285 153.498 58.9492C154.157 55.3762 154.378 50.9358 154.378 45.4752H151.378ZM130.123 69.7272C125.351 69.7272 121.67 69.4764 118.81 68.8028C115.98 68.136 114.048 67.0768 112.668 65.516C111.272 63.9377 110.305 61.6942 109.698 58.4053C109.091 55.1102 108.868 50.8926 108.868 45.4752H105.868C105.868 50.9358 106.089 55.3762 106.748 58.9492C107.408 62.5285 108.528 65.3632 110.421 67.5034C112.329 69.6611 114.886 70.9606 118.122 71.7229C121.33 72.4785 125.294 72.7272 130.123 72.7272V69.7272ZM108.868 45.4752C108.868 40.0578 109.091 35.8402 109.698 32.5451C110.305 29.2562 111.272 27.0127 112.668 25.4344C114.048 23.8736 115.98 22.8144 118.81 22.1475C121.67 21.474 125.351 21.2232 130.123 21.2232V18.2232C125.294 18.2232 121.33 18.4719 118.122 19.2275C114.886 19.9898 112.329 21.2893 110.421 23.447C108.528 25.5872 107.408 28.4219 106.748 32.0012C106.089 35.5742 105.868 40.0145 105.868 45.4752H108.868ZM81.4482 45.4752C81.4482 54.9097 81.9121 62.5351 83.2666 68.6467C84.626 74.7801 86.9046 79.4912 90.6036 82.9872C94.2948 86.4759 99.2511 88.6129 105.696 89.8881C112.13 91.1609 120.165 91.5972 130.123 91.5972V88.5972C120.212 88.5972 112.416 88.1593 106.279 86.9451C100.153 85.7332 95.7995 83.7701 92.6642 80.8069C89.5368 77.8511 87.4724 73.7585 86.1956 67.9975C84.9139 62.2148 84.4482 54.8552 84.4482 45.4752H81.4482ZM130.123 91.5972C140.081 91.5972 148.116 91.1609 154.55 89.8881C160.995 88.6129 165.952 86.4759 169.643 82.9872C173.342 79.4912 175.62 74.7801 176.98 68.6467C178.334 62.5351 178.798 54.9097 178.798 45.4752H175.798C175.798 54.8552 175.332 62.2148 174.051 67.9975C172.774 73.7585 170.71 77.8511 167.582 80.8069C164.447 83.7701 160.093 85.7332 153.968 86.9451C147.83 88.1593 140.034 88.5972 130.123 88.5972V91.5972ZM178.798 45.4752C178.798 36.0407 178.334 28.4153 176.98 22.3037C175.62 16.1703 173.342 11.4592 169.643 7.96317C165.952 4.47452 160.995 2.33752 154.55 1.06232C148.116 -0.210551 140.081 -0.646808 130.123 -0.646808V2.35319C140.034 2.35319 147.83 2.79106 153.968 4.00528C160.093 5.21717 164.447 7.18024 167.582 10.1435C170.71 13.0993 172.774 17.1919 174.051 22.9529C175.332 28.7356 175.798 36.0952 175.798 45.4752H178.798ZM130.123 -0.646808C120.165 -0.646808 112.13 -0.210551 105.696 1.06232C99.2511 2.33752 94.2948 4.47452 90.6036 7.96317C86.9046 11.4592 84.626 16.1703 83.2666 22.3037C81.9121 28.4153 81.4482 36.0407 81.4482 45.4752H84.4482C84.4482 36.0952 84.9139 28.7356 86.1956 22.9529C87.4724 17.1919 89.5368 13.0993 92.6642 10.1435C95.7995 7.18024 100.153 5.21717 106.279 4.00528C112.416 2.79106 120.212 2.35319 130.123 2.35319V-0.646808ZM261.898 2.18519H263.398V0.685194H261.898V2.18519ZM238.588 2.18519V0.685194H237.088V2.18519H238.588ZM208.396 2.18519H209.896V0.685194H208.396V2.18519ZM185.086 2.18519V0.685194H183.586V2.18519H185.086ZM263.398 53.2452V2.18519H260.398V53.2452H263.398ZM261.898 0.685194H238.588V3.68519H261.898V0.685194ZM237.088 2.18519V53.2452H240.088V2.18519H237.088ZM237.088 53.2452C237.088 57.0271 236.941 59.9462 236.546 62.2128C236.152 64.477 235.53 65.9591 234.678 66.9743C233.001 68.9718 229.945 69.7272 223.492 69.7272V72.7272C229.804 72.7272 234.295 72.0951 236.975 68.9033C238.301 67.3239 239.06 65.2609 239.502 62.7278C239.943 60.1972 240.088 57.0668 240.088 53.2452H237.088ZM223.492 69.7272C217.039 69.7272 213.982 68.9718 212.305 66.9743C211.453 65.9591 210.831 64.477 210.437 62.2128C210.042 59.9462 209.896 57.0271 209.896 53.2452H206.896C206.896 57.0668 207.04 60.1972 207.481 62.7278C207.923 65.261 208.682 67.3239 210.008 68.9033C212.688 72.0951 217.18 72.7272 223.492 72.7272V69.7272ZM209.896 53.2452V2.18519H206.896V53.2452H209.896ZM208.396 0.685194H185.086V3.68519H208.396V0.685194ZM183.586 2.18519V53.2452H186.586V2.18519H183.586ZM183.586 53.2452C183.586 61.0414 183.959 67.3604 185.063 72.434C186.171 77.528 188.037 81.4723 191.095 84.4083C194.148 87.3388 198.239 89.1209 203.522 90.1804C208.792 91.2373 215.365 91.5972 223.492 91.5972V88.5972C215.413 88.5972 209.081 88.2356 204.112 87.239C199.155 86.2449 195.67 84.6416 193.173 82.2441C190.681 79.8521 189.023 76.5259 187.994 71.7964C186.961 67.0465 186.586 60.989 186.586 53.2452H183.586ZM223.492 91.5972C231.618 91.5972 238.191 91.2373 243.461 90.1804C248.744 89.1209 252.835 87.3388 255.888 84.4083C258.946 81.4723 260.812 77.528 261.92 72.434C263.024 67.3604 263.398 61.0414 263.398 53.2452H260.398C260.398 60.989 260.022 67.0465 258.989 71.7964C257.96 76.5259 256.302 79.8521 253.81 82.2441C251.313 84.6416 247.828 86.2449 242.871 87.239C237.902 88.2356 231.571 88.5972 223.492 88.5972V91.5972ZM270.829 2.18519V0.685194H269.329V2.18519H270.829ZM270.829 88.7652H269.329V90.2652H270.829V88.7652ZM294.139 88.7652V90.2652H295.639V88.7652H294.139ZM294.139 60.4602V58.9602H292.639V60.4602H294.139ZM329.104 88.7652L327.77 89.4521L328.189 90.2652H329.104V88.7652ZM354.634 88.7652V90.2652H356.134V88.7652H354.634ZM354.634 87.7662H356.134V87.1959L355.755 86.7697L354.634 87.7662ZM335.431 51.2472L335.099 49.7842L335.098 52.7099L335.431 51.2472ZM294.139 42.7002H292.639V44.2002H294.139V42.7002ZM294.139 21.0552V19.5552H292.639V21.0552H294.139ZM322.555 0.685194H270.829V3.68519H322.555V0.685194ZM269.329 2.18519V88.7652H272.329V2.18519H269.329ZM270.829 90.2652H294.139V87.2652H270.829V90.2652ZM295.639 88.7652V60.4602H292.639V88.7652H295.639ZM294.139 61.9602H317.005V58.9602H294.139V61.9602ZM317.005 61.9602C320.651 61.9602 322.468 62.5817 323.521 63.8573C324.66 65.2367 325.273 67.7827 325.273 72.6702H328.273C328.273 67.7897 327.72 64.2307 325.834 61.9471C323.863 59.5596 320.796 58.9602 317.005 58.9602V61.9602ZM325.273 72.6702C325.273 80.4169 325.696 85.4266 327.77 89.4521L330.437 88.0783C328.737 84.7778 328.273 80.4635 328.273 72.6702H325.273ZM329.104 90.2652H354.634V87.2652H329.104V90.2652ZM356.134 88.7652V87.7662H353.134V88.7652H356.134ZM355.755 86.7697C354.237 85.0627 353.198 82.4828 352.555 79.1178C351.915 75.7714 351.694 71.8008 351.694 67.4532H348.694C348.694 71.8746 348.916 76.0625 349.608 79.6813C350.297 83.2816 351.478 86.4737 353.513 88.7627L355.755 86.7697ZM351.694 67.4532C351.694 61.9423 350.382 57.9983 347.533 55.1647C344.748 52.3957 340.701 50.9068 335.763 49.7845L335.098 52.7099C339.928 53.8076 343.263 55.1491 345.418 57.292C347.507 59.3701 348.694 62.419 348.694 67.4532H351.694ZM335.762 52.7102C341.761 51.352 346.123 49.3712 348.957 46.1797C351.821 42.9535 352.915 38.7301 352.915 33.3762H349.915C349.915 38.3453 348.9 41.7254 346.713 44.188C344.496 46.6852 340.867 48.4784 335.099 49.7842L335.762 52.7102ZM352.915 33.3762V30.0462H349.915V33.3762H352.915ZM352.915 30.0462C352.915 24.1395 352.645 19.328 351.822 15.4537C350.995 11.5598 349.586 8.50143 347.228 6.21445C344.875 3.93193 341.728 2.56504 337.708 1.75859C333.702 0.954839 328.711 0.685194 322.555 0.685194V3.68519C328.664 3.68519 333.413 3.95667 337.118 4.69998C340.809 5.4406 343.344 6.62671 345.139 8.36793C346.93 10.1047 348.137 12.5409 348.888 16.077C349.643 19.6327 349.915 24.1869 349.915 30.0462H352.915ZM295.639 42.7002V21.0552H292.639V42.7002H295.639ZM294.139 22.5552H316.561V19.5552H294.139V22.5552ZM316.561 22.5552C318.973 22.5552 320.796 22.6735 322.186 22.9568C323.565 23.238 324.408 23.66 324.967 24.1869C325.518 24.7052 325.936 25.4585 326.212 26.6779C326.493 27.9207 326.605 29.5476 326.605 31.7112H329.605C329.605 29.4903 329.495 27.593 329.138 26.0157C328.775 24.415 328.139 23.0523 327.024 22.0028C325.919 20.9618 324.486 20.364 322.785 20.0173C321.095 19.6728 319.032 19.5552 316.561 19.5552V22.5552ZM326.605 31.7112C326.605 33.9596 326.493 35.6529 326.209 36.9472C325.93 38.2208 325.507 39.005 324.953 39.5405C324.394 40.0811 323.555 40.5096 322.181 40.7943C320.794 41.0818 318.974 41.2002 316.561 41.2002V44.2002C319.031 44.2002 321.097 44.0827 322.79 43.7319C324.496 43.3784 325.932 42.7663 327.038 41.6974C328.149 40.6234 328.781 39.2293 329.14 37.5891C329.495 35.9696 329.605 34.0138 329.605 31.7112H326.605ZM316.561 41.2002H294.139V44.2002H316.561V41.2002ZM486.737 52.0242L488.237 52.0138L488.226 50.5242H486.737V52.0242ZM462.317 52.0242V50.5242H460.796L460.817 52.0447L462.317 52.0242ZM462.317 38.8152L460.817 38.7945L460.796 40.3152H462.317V38.8152ZM486.737 38.8152V40.3152H488.226L488.237 38.8256L486.737 38.8152ZM486.737 50.5242H462.317V53.5242H486.737V50.5242ZM460.817 52.0447C460.872 56.0666 460.695 59.1481 460.155 61.5296C459.621 63.8811 458.754 65.4567 457.482 66.5775C456.19 67.7159 454.326 68.5219 451.542 69.0301C448.754 69.5391 445.174 69.7272 440.561 69.7272V72.7272C445.216 72.7272 449.017 72.5406 452.081 71.9813C455.149 71.4211 457.607 70.465 459.465 68.8284C461.342 67.1742 462.452 64.962 463.081 62.1936C463.702 59.4552 463.872 56.0848 463.817 52.0036L460.817 52.0447ZM440.561 69.7272C431.164 69.7272 426.351 68.6666 423.661 65.5328C422.307 63.955 421.366 61.7082 420.777 58.4133C420.187 55.1142 419.972 50.8933 419.972 45.4752H416.972C416.972 50.935 417.186 55.3722 417.824 58.9413C418.463 62.5144 419.548 65.3459 421.385 67.4866C425.078 71.7898 431.309 72.7272 440.561 72.7272V69.7272ZM419.972 45.4752C419.972 40.057 420.187 35.8362 420.777 32.5371C421.366 29.2422 422.307 26.9954 423.661 25.4176C426.351 22.2838 431.164 21.2232 440.561 21.2232V18.2232C431.309 18.2232 425.078 19.1606 421.385 23.4638C419.548 25.6045 418.463 28.436 417.824 32.0091C417.186 35.5782 416.972 40.0153 416.972 45.4752H419.972ZM440.561 21.2232C445.173 21.2232 448.754 21.4112 451.543 21.9187C454.327 22.4254 456.192 23.2286 457.484 24.3615C458.756 25.4762 459.622 27.0416 460.155 29.3759C460.695 31.7409 460.872 34.8007 460.817 38.7945L463.817 38.8359C463.872 34.7822 463.702 31.4318 463.08 28.7081C462.451 25.9537 461.34 23.7521 459.462 22.1056C457.605 20.4774 455.148 19.5254 452.08 18.9672C449.017 18.4098 445.216 18.2232 440.561 18.2232V21.2232ZM462.317 40.3152H486.737V37.3152H462.317V40.3152ZM488.237 38.8256C488.347 22.9035 486.664 12.6858 479.379 6.68816C475.76 3.70908 470.905 1.89471 464.591 0.81088C458.278 -0.272831 450.377 -0.646808 440.561 -0.646808V2.35319C450.336 2.35319 458.03 2.72846 464.083 3.76763C470.136 4.80667 474.417 6.48881 477.472 9.00423C483.535 13.9956 485.348 22.7589 485.237 38.8048L488.237 38.8256ZM440.561 -0.646808C430.741 -0.646808 422.815 -0.210568 416.468 1.06312C410.108 2.33941 405.216 4.47877 401.574 7.97057C397.927 11.4679 395.682 16.1783 394.343 22.3082C393.009 28.4177 392.552 36.0412 392.552 45.4752H395.552C395.552 36.0947 396.01 28.7332 397.274 22.9484C398.533 17.1839 400.569 13.0906 403.651 10.1361C406.738 7.17599 411.025 5.21529 417.058 4.00448C423.105 2.79108 430.789 2.35319 440.561 2.35319V-0.646808ZM392.552 45.4752C392.552 54.9092 393.009 62.5327 394.343 68.6422C395.682 74.7721 397.927 79.4825 401.574 82.9798C405.216 86.4716 410.108 88.611 416.468 89.8873C422.815 91.161 430.741 91.5972 440.561 91.5972V88.5972C430.789 88.5972 423.105 88.1593 417.058 86.9459C411.025 85.7351 406.738 83.7744 403.651 80.8143C400.569 77.8598 398.533 73.7664 397.274 68.002C396.01 62.2172 395.552 54.8557 395.552 45.4752H392.552ZM440.561 91.5972C450.377 91.5972 458.278 91.2232 464.591 90.1377C470.905 89.052 475.762 87.2339 479.38 84.2472C486.664 78.2354 488.347 67.9904 488.237 52.0138L485.237 52.0346C485.348 68.137 483.535 76.9285 477.471 81.9335C474.416 84.4551 470.135 86.1404 464.083 87.1811C458.03 88.2219 450.336 88.5972 440.561 88.5972V91.5972ZM558.169 2.18519L559.588 1.70104L559.242 0.685194H558.169V2.18519ZM520.429 2.18519V0.685194H519.359L519.011 1.69615L520.429 2.18519ZM490.57 88.7652L489.152 88.2762L488.466 90.2652H490.57V88.7652ZM516.1 88.7652V90.2652H517.234L517.543 89.1735L516.1 88.7652ZM520.873 71.8932V70.3932H519.738L519.429 71.4849L520.873 71.8932ZM555.616 71.8932L557.043 71.433L556.708 70.3932H555.616V71.8932ZM561.055 88.7652L559.627 89.2254L559.962 90.2652H561.055V88.7652ZM587.695 88.7652V90.2652H589.791L589.114 88.281L587.695 88.7652ZM526.312 53.0232L524.903 52.5079L524.166 54.5232H526.312V53.0232ZM538.411 19.9452V18.4452H537.362L537.002 19.4299L538.411 19.9452ZM539.299 19.9452L540.721 19.468L540.378 18.4452H539.299V19.9452ZM550.399 53.0232V54.5232H552.484L551.821 52.546L550.399 53.0232ZM558.169 0.685194H520.429V3.68519H558.169V0.685194ZM519.011 1.69615L489.152 88.2762L491.988 89.2542L521.847 2.67424L519.011 1.69615ZM490.57 90.2652H516.1V87.2652H490.57V90.2652ZM517.543 89.1735L522.316 72.3015L519.429 71.4849L514.656 88.3569L517.543 89.1735ZM520.873 73.3932H555.616V70.3932H520.873V73.3932ZM554.188 72.3534L559.627 89.2254L562.482 88.305L557.043 71.433L554.188 72.3534ZM561.055 90.2652H587.695V87.2652H561.055V90.2652ZM589.114 88.281L559.588 1.70104L556.749 2.66935L586.275 89.2494L589.114 88.281ZM527.72 53.5385L539.819 20.4605L537.002 19.4299L524.903 52.5079L527.72 53.5385ZM538.411 21.4452H539.299V18.4452H538.411V21.4452ZM537.877 20.4224L548.977 53.5004L551.821 52.546L540.721 19.468L537.877 20.4224ZM550.399 51.5232H526.312V54.5232H550.399V51.5232ZM592.664 2.18519V0.685194H591.164V2.18519H592.664ZM592.664 88.7652H591.164V90.2652H592.664V88.7652ZM615.974 88.7652V90.2652H617.474V88.7652H615.974ZM615.974 60.4602V58.9602H614.474V60.4602H615.974ZM650.939 88.7652L649.605 89.4521L650.024 90.2652H650.939V88.7652ZM676.469 88.7652V90.2652H677.969V88.7652H676.469ZM676.469 87.7662H677.969V87.1959L677.59 86.7697L676.469 87.7662ZM657.266 51.2472L656.934 49.7842L656.933 52.7099L657.266 51.2472ZM615.974 42.7002H614.474V44.2002H615.974V42.7002ZM615.974 21.0552V19.5552H614.474V21.0552H615.974ZM644.39 0.685194H592.664V3.68519H644.39V0.685194ZM591.164 2.18519V88.7652H594.164V2.18519H591.164ZM592.664 90.2652H615.974V87.2652H592.664V90.2652ZM617.474 88.7652V60.4602H614.474V88.7652H617.474ZM615.974 61.9602H638.84V58.9602H615.974V61.9602ZM638.84 61.9602C642.486 61.9602 644.303 62.5817 645.356 63.8573C646.495 65.2367 647.108 67.7827 647.108 72.6702H650.108C650.108 67.7897 649.555 64.2307 647.669 61.9471C645.698 59.5596 642.631 58.9602 638.84 58.9602V61.9602ZM647.108 72.6702C647.108 80.4169 647.531 85.4266 649.605 89.4521L652.272 88.0783C650.572 84.7778 650.108 80.4635 650.108 72.6702H647.108ZM650.939 90.2652H676.469V87.2652H650.939V90.2652ZM677.969 88.7652V87.7662H674.969V88.7652H677.969ZM677.59 86.7697C676.072 85.0627 675.033 82.4828 674.39 79.1178C673.75 75.7714 673.529 71.8008 673.529 67.4532H670.529C670.529 71.8746 670.751 76.0625 671.443 79.6813C672.132 83.2816 673.313 86.4737 675.348 88.7627L677.59 86.7697ZM673.529 67.4532C673.529 61.9423 672.217 57.9983 669.368 55.1647C666.583 52.3957 662.536 50.9068 657.598 49.7845L656.933 52.7099C661.763 53.8076 665.098 55.1491 667.252 57.292C669.342 59.3701 670.529 62.419 670.529 67.4532H673.529ZM657.597 52.7102C663.596 51.352 667.958 49.3712 670.792 46.1797C673.656 42.9535 674.75 38.7301 674.75 33.3762H671.75C671.75 38.3453 670.734 41.7254 668.548 44.188C666.331 46.6852 662.702 48.4784 656.934 49.7842L657.597 52.7102ZM674.75 33.3762V30.0462H671.75V33.3762H674.75ZM674.75 30.0462C674.75 24.1395 674.48 19.328 673.657 15.4537C672.83 11.5598 671.421 8.50143 669.063 6.21445C666.71 3.93193 663.563 2.56504 659.543 1.75859C655.537 0.954839 650.546 0.685194 644.39 0.685194V3.68519C650.499 3.68519 655.248 3.95667 658.953 4.69998C662.644 5.4406 665.179 6.62671 666.974 8.36793C668.765 10.1047 669.972 12.5409 670.723 16.077C671.478 19.6327 671.75 24.1869 671.75 30.0462H674.75ZM617.474 42.7002V21.0552H614.474V42.7002H617.474ZM615.974 22.5552H638.396V19.5552H615.974V22.5552ZM638.396 22.5552C640.808 22.5552 642.63 22.6735 644.021 22.9568C645.4 23.238 646.243 23.66 646.802 24.1869C647.353 24.7052 647.771 25.4585 648.047 26.6779C648.328 27.9207 648.44 29.5476 648.44 31.7112H651.44C651.44 29.4903 651.329 27.593 650.973 26.0157C650.61 24.415 649.973 23.0523 648.859 22.0028C647.753 20.9618 646.321 20.364 644.62 20.0173C642.93 19.6728 640.867 19.5552 638.396 19.5552V22.5552ZM648.44 31.7112C648.44 33.9596 648.328 35.6529 648.044 36.9472C647.765 38.2208 647.342 39.005 646.788 39.5405C646.229 40.0811 645.39 40.5096 644.016 40.7943C642.629 41.0818 640.809 41.2002 638.396 41.2002V44.2002C640.866 44.2002 642.932 44.0827 644.625 43.7319C646.331 43.3784 647.767 42.7663 648.873 41.6974C649.984 40.6234 650.615 39.2293 650.975 37.5891C651.33 35.9696 651.44 34.0138 651.44 31.7112H648.44ZM638.396 41.2002H615.974V44.2002H638.396V41.2002ZM706.362 88.7652H704.862V90.2652H706.362V88.7652ZM729.672 88.7652V90.2652H731.172V88.7652H729.672ZM729.672 21.0552V19.5552H728.172V21.0552H729.672ZM756.423 21.0552V22.5552H757.923V21.0552H756.423ZM756.423 2.18519H757.923V0.685194H756.423V2.18519ZM679.833 2.18519V0.685194H678.333V2.18519H679.833ZM679.833 21.0552H678.333V22.5552H679.833V21.0552ZM706.362 21.0552H707.862V19.5552H706.362V21.0552ZM706.362 90.2652H729.672V87.2652H706.362V90.2652ZM731.172 88.7652V21.0552H728.172V88.7652H731.172ZM729.672 22.5552H756.423V19.5552H729.672V22.5552ZM757.923 21.0552V2.18519H754.923V21.0552H757.923ZM756.423 0.685194H679.833V3.68519H756.423V0.685194ZM678.333 2.18519V21.0552H681.333V2.18519H678.333ZM679.833 22.5552H706.362V19.5552H679.833V22.5552ZM704.862 21.0552V88.7652H707.862V21.0552H704.862Z" fill="white"/>
</svg>
